<svg width="46" height="46" viewBox="0 0 46 46" fill="none" xmlns="http://www.w3.org/2000/svg">
<g clip-path="url(#clip0_19422_22328)">
<rect width="46" height="46" rx="23" fill="#E0E0E0"/>
<g clip-path="url(#clip1_19422_22328)">
<rect width="46" height="46" fill="#E0F4FE"/>
<path d="M24.6473 39.5354C23.9723 40.1976 23.1111 40.8555 22.0194 41.4134C21.1465 41.86 20.1265 42.243 18.9353 42.5131C20.3977 46.4274 22.0574 49.0344 22.0574 49.0344C22.0574 49.0344 25.7395 43.8947 26.9093 36.0233C26.8002 36.378 26.2434 37.9687 24.6468 39.5354H24.6473ZM21.1133 44.1643C20.8325 44.1643 20.6047 43.9364 20.6047 43.6556C20.6047 43.3748 20.8325 43.1469 21.1133 43.1469C21.3941 43.1469 21.622 43.3748 21.622 43.6556C21.622 43.9364 21.3941 44.1643 21.1133 44.1643Z" fill="#FFBF44"/>
<path d="M30.6162 15.9518C30.5573 15.5608 30.4915 15.1987 30.4252 14.8788C30.3348 14.4424 30.2155 14.0086 30.0642 13.5876C29.8887 13.1009 29.4662 12.7634 28.9821 12.6837C28.8099 12.6548 28.6296 12.6591 28.4499 12.7013C28.3996 12.7131 28.3707 12.7233 28.3707 12.7233C28.2664 12.7543 28.1637 12.7837 28.0621 12.8121C23.5151 14.0797 21.6317 12.7521 21.5921 12.7238L22.0944 14.1188L22.3768 14.9024C20.1212 15.3592 19.6259 18.3101 19.6259 18.3101C19.4264 17.9052 19.2124 17.4966 19.045 17.1831C18.9621 17.0269 18.8514 16.89 18.722 16.7771C18.4775 16.5648 18.1641 16.4391 17.8314 16.437H17.8212C16.8905 16.437 16.1069 17.1115 15.87 18.0293C15.8218 18.2144 15.7961 18.4101 15.7961 18.6118C15.7961 18.8017 15.8186 18.9857 15.8614 19.1611C15.9791 19.6468 16.2492 20.0667 16.614 20.3582C16.6381 20.4031 16.6616 20.448 16.6846 20.493C16.7926 20.5352 16.9012 20.5721 17.0071 20.6037C17.4366 20.7337 17.8132 20.7818 17.8485 20.7861C17.8501 20.7866 17.8512 20.7866 17.8512 20.7866L17.7549 23.4086L17.5843 28.0605L21.9762 31.2864L26.404 28.0338V25.3048C26.6356 25.2984 26.8741 25.2829 27.1196 25.2572C27.4689 25.2203 27.7877 25.1449 28.0787 25.0352C31.1425 23.889 31.0788 19.0135 30.6162 15.9518Z" fill="#F9BEA5"/>
<path d="M24.2793 16.3833C24.4257 16.3726 24.5273 16.1299 24.5062 15.8412C24.4851 15.5524 24.3493 15.3271 24.2029 15.3378C24.0564 15.3485 23.9548 15.5912 23.976 15.8799C23.9971 16.1687 24.1328 16.394 24.2793 16.3833Z" fill="#231F20"/>
<path d="M28.9487 16.499C29.0951 16.4883 29.1967 16.2455 29.1756 15.9568C29.1545 15.6681 29.0187 15.4427 28.8723 15.4534C28.7259 15.4641 28.6243 15.7068 28.6454 15.9956C28.6665 16.2843 28.8023 16.5097 28.9487 16.499Z" fill="#231F20"/>
<path d="M21.1134 44.1643C21.3943 44.1643 21.6221 43.9365 21.6221 43.6556C21.6221 43.3747 21.3943 43.1469 21.1134 43.1469C20.8325 43.1469 20.6047 43.3747 20.6047 43.6556C20.6047 43.9365 20.8325 44.1643 21.1134 44.1643Z" fill="#231F20"/>
<path d="M34.0978 32.8927C34.0978 32.8927 33.7448 34.7209 32.6488 37.2381C32.0572 38.5988 31.2474 40.1612 30.1595 41.745C29.8909 42.1366 29.6053 42.5286 29.302 42.9196C27.9696 44.635 26.2922 46.3231 24.1912 47.7544C24.1907 47.7544 24.1901 47.7555 24.1901 47.7555C23.5231 48.2101 22.8134 48.6391 22.0581 49.0344C22.0581 49.0344 25.7397 43.8947 26.91 36.0239C27.0887 34.8172 27.209 33.5474 27.2481 32.2214C27.254 32.0337 27.2577 31.8459 27.2598 31.6566C27.2652 31.2351 27.2614 30.8082 27.2491 30.3766L29.1282 30.644L30.6639 30.8628L30.7152 30.8703L33.0468 31.2062L32.3289 32.2808L32.0305 32.7279L31.3458 33.7528L34.0978 32.8927Z" fill="#135DD3"/>
<path d="M23.7931 33.2853L23.1438 33.9293C23.0737 33.9988 22.9887 34.0501 22.8972 34.0812C23.1513 34.4122 24.6725 36.525 24.6473 39.5348C26.244 37.9682 26.8003 36.378 26.9099 36.0228C27.1709 34.2673 27.3073 32.3765 27.2496 30.3755L27.0361 30.345L24.8469 34.4128L23.7931 33.2847V33.2853Z" fill="#E2D2F9"/>
<path d="M22.6921 34.1159C22.7627 34.1159 22.8317 34.1036 22.8975 34.0817C22.9895 34.0507 23.074 33.9993 23.1441 33.9298L23.7934 33.2858L21.9764 31.3399L20.2183 33.2227L20.9312 33.9303C21.0013 33.9999 21.0864 34.0512 21.1778 34.0822C21.2436 34.1042 21.3126 34.1165 21.3832 34.1165H22.6916L22.6921 34.1159Z" fill="#CA6754"/>
<path d="M19.4286 39.5702C17.9839 38.1666 17.3784 36.7364 17.1848 36.1854C17.5913 38.4967 18.2412 40.6528 18.9366 42.5126C20.1278 42.2425 21.1472 41.8595 22.0207 41.4129C20.9483 40.8646 20.0989 40.2201 19.4292 39.5696L19.4286 39.5702Z" fill="#FFBF44"/>
<path d="M24.6475 39.5354C23.9725 40.1976 23.1113 40.8555 22.0196 41.4133C20.9477 40.8651 20.0978 40.2205 19.4286 39.5707C19.3917 36.5422 20.9236 34.4144 21.1782 34.0817C21.244 34.1036 21.313 34.1159 21.3836 34.1159H22.692C22.7626 34.1159 22.8316 34.1036 22.8974 34.0817C23.1509 34.4128 24.6721 36.5256 24.6475 39.5354Z" fill="#CA6754"/>
<path d="M32.9727 12.2023C32.9192 12.5858 32.793 12.9527 32.6068 13.2876C32.4678 13.5384 32.295 13.7716 32.0944 13.9802C32.0538 14.0225 32.0115 14.0674 31.9677 14.114C31.5184 14.5954 30.9209 15.303 30.616 15.9518C30.5572 15.5608 30.4914 15.1987 30.425 14.8788C30.3346 14.4424 30.2154 14.0086 30.064 13.5876C30.0453 13.5352 30.0234 13.4844 29.9987 13.4357C29.7158 12.8693 29.0788 12.5542 28.4497 12.7013C28.3994 12.7131 28.3706 12.7233 28.3706 12.7233C23.5999 14.1396 21.6326 12.7527 21.592 12.7238L21.6444 12.8693L22.3767 14.9024C20.2644 15.3303 19.6958 17.9453 19.6316 18.2759C19.6279 18.2983 19.6257 18.3101 19.6257 18.3101C19.4262 17.9052 19.2123 17.4966 19.0449 17.1831C18.8052 16.7338 18.341 16.4402 17.8312 16.437H17.8211C16.7026 16.437 15.796 17.411 15.796 18.6118C15.796 18.8017 15.8184 18.9857 15.8612 19.1611C15.7826 19.0525 15.7029 18.944 15.6232 18.8354C14.3384 17.0879 12.9948 15.3934 13.0151 13.0961C13.0242 12.1135 13.3901 11.3625 13.9758 10.7907C14.6893 10.0932 15.7297 9.66105 16.8481 9.39574C16.8481 9.39574 16.8363 9.2433 16.8577 8.99833C16.8577 8.99779 16.8583 8.99672 16.8583 8.99619C16.8796 8.75174 16.9337 8.41584 17.0647 8.04891C17.0674 8.04035 17.0706 8.03126 17.0738 8.02217C17.0808 8.00398 17.0872 7.98579 17.0941 7.96761C17.1059 7.93765 17.1177 7.9077 17.1305 7.87775C17.1412 7.85208 17.1519 7.8264 17.1637 7.80073C17.4568 7.13533 18.0184 6.41377 19.0871 5.96393C19.1497 5.93772 19.2134 5.91206 19.2775 5.88852C22.9773 4.51922 25.149 7.14443 25.149 7.14443C25.1559 7.14389 25.1629 7.14282 25.1704 7.14228C25.1741 7.14175 25.1789 7.14121 25.1842 7.14068H25.1864C25.4838 7.11393 27.5057 6.97968 29.0327 8.0548C29.0943 8.09812 29.1547 8.14306 29.2141 8.19013C29.6645 8.54636 30.0608 9.01866 30.3416 9.64447C30.3416 9.64447 30.6342 9.6557 31.0252 9.74663C31.0947 9.76214 31.1669 9.78086 31.2418 9.80226L31.2445 9.80333C31.2953 9.81831 31.3477 9.83435 31.4001 9.852C32.2164 10.1253 33.1738 10.7554 32.9727 12.2023Z" fill="#700517"/>
<path d="M22.0583 49.0344C21.963 48.9847 21.8689 48.9344 21.7753 48.883C21.6582 48.8199 21.5421 48.7557 21.4271 48.6899C21.2564 48.5937 21.088 48.4952 20.9216 48.3947C20.7965 48.3193 20.6729 48.2428 20.5504 48.1658C20.2584 47.9812 19.9743 47.7924 19.6973 47.5982C19.632 47.5528 19.5673 47.5068 19.5026 47.4608C19.4566 47.4271 19.4106 47.3944 19.3651 47.3608C19.2811 47.2998 19.1982 47.2383 19.1153 47.1762C19.0538 47.1302 18.9928 47.0837 18.9318 47.0372C18.873 46.9922 18.8142 46.9467 18.7559 46.9007C18.7511 46.897 18.7462 46.8933 18.7414 46.8895C18.6879 46.8478 18.635 46.8055 18.582 46.7627C18.5729 46.7558 18.5633 46.7483 18.5542 46.7408C18.497 46.6948 18.4398 46.6488 18.3831 46.6023C18.3232 46.5536 18.2638 46.5044 18.2049 46.4547C18.1654 46.422 18.1263 46.3889 18.0873 46.3552C18.0418 46.3177 17.9969 46.2792 17.9525 46.2402C17.9503 46.2391 17.9487 46.2375 17.9471 46.2359C17.8963 46.1926 17.8466 46.1487 17.7968 46.1048C17.7792 46.0893 17.7615 46.0738 17.7439 46.0583C17.708 46.0267 17.6727 45.9957 17.6374 45.9636C17.5963 45.9273 17.5556 45.8904 17.515 45.8529C17.4652 45.808 17.4155 45.7625 17.3662 45.7171C17.293 45.6491 17.2208 45.5812 17.1491 45.5133C17.1138 45.4801 17.0785 45.4464 17.0437 45.4127C16.9218 45.295 16.8014 45.1768 16.6832 45.0581C16.6415 45.0164 16.5998 44.9741 16.5586 44.9318C16.4521 44.8233 16.3478 44.7141 16.2451 44.605C16.1959 44.5537 16.1478 44.5018 16.1002 44.4499C15.8916 44.2247 15.6899 43.9979 15.4952 43.7701C15.4599 43.7294 15.4252 43.6882 15.3909 43.6476C15.1176 43.324 14.8571 42.9988 14.6095 42.673C14.5736 42.626 14.5383 42.5789 14.503 42.5318C14.2923 42.251 14.0906 41.9702 13.8981 41.6899C13.8617 41.6375 13.8259 41.5846 13.7906 41.5321C13.7611 41.4888 13.7317 41.4449 13.7028 41.4016C13.6574 41.3342 13.613 41.2668 13.5691 41.2C13.5354 41.1481 13.5017 41.0967 13.4686 41.0454C13.4338 40.9914 13.399 40.9373 13.3653 40.8839C13.3311 40.8298 13.2968 40.7763 13.2637 40.7223C13.2295 40.6683 13.1963 40.6148 13.1637 40.5613C13.131 40.5078 13.0984 40.4543 13.0658 40.4008C13.0337 40.3479 13.0016 40.2944 12.97 40.2414C12.9465 40.2024 12.9235 40.1634 12.9005 40.1243C12.87 40.073 12.8401 40.0216 12.8106 39.9703C12.4635 39.3728 12.1549 38.7887 11.881 38.2282C11.8569 38.179 11.8329 38.1292 11.8093 38.08C11.6906 37.834 11.5788 37.5927 11.4734 37.3568C11.4574 37.3215 11.4419 37.2862 11.4264 37.2509C11.3595 37.099 11.2948 36.9498 11.2327 36.8032C11.214 36.7578 11.1948 36.7128 11.1766 36.6684C11.1113 36.5112 11.0487 36.3571 10.9894 36.2063C10.9717 36.1624 10.9546 36.1186 10.938 36.0753C10.9043 35.9886 10.8712 35.903 10.8396 35.8185C10.8236 35.7762 10.808 35.7345 10.7925 35.6928C10.7872 35.6789 10.7824 35.6655 10.777 35.6516C10.7519 35.5831 10.7267 35.5152 10.7027 35.4489C10.6979 35.4339 10.692 35.4189 10.6866 35.404C10.6743 35.3692 10.662 35.335 10.6503 35.3007C10.6315 35.2489 10.6133 35.1975 10.5957 35.1467C10.577 35.0921 10.5582 35.0381 10.5401 34.9851C10.2453 34.1176 10.0742 33.4639 9.99288 33.1254C9.98967 33.1115 9.98646 33.0981 9.98325 33.0852C9.97523 33.0499 9.96773 33.0184 9.96185 32.9916C9.95918 32.9815 9.95704 32.9719 9.95544 32.9628C9.95062 32.943 9.94742 32.9264 9.94421 32.913C9.94207 32.9039 9.94046 32.8959 9.93939 32.8895C9.93618 32.8745 9.93457 32.867 9.93457 32.867L12.686 33.7271L11.2814 31.6234L10.9878 31.1837L12.6892 30.9414L16.7822 30.3589C16.688 32.3541 16.857 34.3208 17.1849 36.186C17.5914 38.4972 18.2413 40.6528 18.9367 42.5131C19.8599 44.9837 20.8612 46.9334 21.4747 48.0358C21.8331 48.6798 22.0588 49.0344 22.0588 49.0344H22.0583Z" fill="#135DD3"/>
<path d="M49.5258 46.6665V52.8192H-2.73389L-2.72855 43.7765L4.34154 33.3981C4.40038 33.312 4.4619 33.2286 4.52716 33.1483C5.12355 32.4086 5.97563 31.9128 6.92183 31.763L10.987 31.1837L11.2806 31.6234L12.6852 33.7271L9.93376 32.867C9.93376 32.867 9.93536 32.8745 9.93857 32.8895C9.93964 32.8959 9.94125 32.9039 9.94339 32.913C9.9466 32.9264 9.94981 32.943 9.95462 32.9627C9.95623 32.9718 9.95836 32.9815 9.96103 32.9916C9.96692 33.0184 9.97441 33.0499 9.98244 33.0852C9.98565 33.0981 9.98885 33.1114 9.99206 33.1253C10.0734 33.4639 10.2445 34.1175 10.5392 34.9851C10.5574 35.0381 10.5762 35.0921 10.5949 35.1467C10.6125 35.1975 10.6307 35.2488 10.6494 35.3007C10.6612 35.335 10.6735 35.3692 10.6858 35.4039C10.6912 35.4189 10.697 35.4339 10.7019 35.4489C10.7259 35.5152 10.7511 35.5831 10.7762 35.6516C10.7815 35.6655 10.7864 35.6789 10.7917 35.6928C10.8072 35.7345 10.8227 35.7762 10.8388 35.8185C10.8703 35.903 10.9035 35.9886 10.9372 36.0752C10.9538 36.1186 10.9709 36.1624 10.9885 36.2063C11.0479 36.3571 11.1105 36.5112 11.1758 36.6684C11.1939 36.7133 11.2132 36.7583 11.2319 36.8032C11.294 36.9498 11.3587 37.099 11.4256 37.2509C11.4411 37.2862 11.4566 37.3215 11.4726 37.3568C11.578 37.5927 11.6898 37.8339 11.8085 38.08C11.8321 38.1292 11.8556 38.1784 11.8802 38.2281C12.1541 38.7887 12.4627 39.3728 12.8098 39.9703C12.8392 40.0216 12.8692 40.0729 12.8997 40.1243C12.9227 40.1633 12.9457 40.2024 12.9692 40.2414C13.0002 40.2944 13.0323 40.3473 13.065 40.4008C13.0971 40.4543 13.1297 40.5078 13.1629 40.5613C13.1955 40.6148 13.2286 40.6683 13.2629 40.7223C13.296 40.7758 13.3297 40.8298 13.3645 40.8838C13.3982 40.9373 13.433 40.9914 13.4677 41.0454C13.5009 41.0967 13.5341 41.1486 13.5683 41.1999C13.6121 41.2668 13.6565 41.3342 13.702 41.4016C13.7304 41.4449 13.7598 41.4888 13.7897 41.5321C13.825 41.5845 13.8609 41.6375 13.8972 41.6899C14.0898 41.9702 14.2915 42.251 14.5022 42.5318C14.537 42.5789 14.5728 42.6259 14.6086 42.673C14.8563 42.9988 15.1168 43.324 15.3901 43.6476C15.4243 43.6882 15.4591 43.7294 15.4944 43.7701C15.6891 43.9979 15.8908 44.2247 16.0994 44.4499C16.147 44.5018 16.1951 44.5537 16.2443 44.605C16.347 44.7141 16.4513 44.8232 16.5578 44.9318C16.5989 44.9741 16.6401 45.0158 16.6824 45.0581C16.8006 45.1768 16.9209 45.295 17.0429 45.4127C17.0777 45.4464 17.113 45.4801 17.1483 45.5132C17.2199 45.5812 17.2922 45.6491 17.3654 45.717C17.4146 45.7625 17.4638 45.808 17.5141 45.8529C17.5548 45.8903 17.5954 45.9272 17.6366 45.9636C17.6719 45.9957 17.7072 46.0267 17.7431 46.0583C17.7607 46.0738 17.7784 46.0893 17.796 46.1048C17.8458 46.1487 17.8955 46.1926 17.9463 46.2359C17.9479 46.2375 17.9495 46.2391 17.9517 46.2402C17.9961 46.2792 18.041 46.3177 18.0865 46.3552C18.1255 46.3889 18.1645 46.422 18.2041 46.4546C18.263 46.5044 18.3223 46.5531 18.3822 46.6023C18.4389 46.6488 18.4956 46.6948 18.5534 46.7408C18.5625 46.7483 18.5721 46.7558 18.5812 46.7627C18.6342 46.8055 18.6871 46.8478 18.7406 46.8895C18.7454 46.8932 18.7503 46.897 18.7551 46.9007C18.8134 46.9467 18.8717 46.9922 18.931 47.0371C18.9915 47.0837 19.053 47.1302 19.1145 47.1762C19.1974 47.2383 19.2803 47.2998 19.3643 47.3607C19.4098 47.3944 19.4558 47.4271 19.5018 47.4602C19.5659 47.5068 19.6312 47.5528 19.6965 47.5982C19.9735 47.7924 20.2575 47.9812 20.5496 48.1658C20.6721 48.2428 20.7956 48.3193 20.9208 48.3947C21.0871 48.4952 21.2556 48.5937 21.4263 48.6899C21.5413 48.7557 21.6573 48.8199 21.7745 48.883C21.8681 48.9344 21.9622 48.9846 22.0574 49.0344C31.9849 43.8353 34.0971 32.8927 34.0971 32.8927L31.3452 33.7528L32.0298 32.7279L32.3283 32.2808L33.0461 31.2062L30.7145 30.8703L37.0791 31.7774C38.0729 31.9347 38.9657 32.4749 39.5663 33.2821L42.9949 37.8901L49.5253 46.6665H49.5258Z" fill="#2A6FF1"/>
<path d="M17.1841 36.1859C17.3778 36.7363 17.9838 38.1671 19.428 39.5707C19.3911 36.5422 20.923 34.4144 21.1781 34.0817C21.0861 34.0507 21.0016 33.9993 20.9315 33.9298L20.2185 33.2222L19.106 34.4139L16.9156 30.3397L16.7824 30.3584C16.6878 32.3535 16.8573 34.3203 17.1852 36.1854L17.1841 36.1859Z" fill="#E2D2F9"/>
<path d="M21.1134 44.1643C21.3943 44.1643 21.6221 43.9365 21.6221 43.6556C21.6221 43.3747 21.3943 43.1469 21.1134 43.1469C20.8325 43.1469 20.6047 43.3747 20.6047 43.6556C20.6047 43.9365 20.8325 44.1643 21.1134 44.1643Z" fill="#DD9828"/>
<path d="M17.8512 20.7866L17.7549 23.4086C17.5142 22.4089 17.1622 21.413 16.6846 20.493C16.7926 20.5352 16.9012 20.5721 17.0071 20.6037C17.4366 20.7337 17.8132 20.7818 17.8485 20.7861C17.8501 20.7866 17.8512 20.7866 17.8512 20.7866Z" fill="#700517"/>
<g style="mix-blend-mode:multiply">
<path d="M20.041 22.1068C20.041 22.1068 21.1386 28.3628 26.404 28.0333V25.3043C26.404 25.3043 22.5245 25.6584 20.041 22.1068Z" fill="#DBAB9A"/>
</g>
<g style="mix-blend-mode:multiply">
<path d="M27.2492 30.3766L27.0363 30.3461L26.3062 28.6018L21.9453 31.3854L17.5844 28.6024L16.7559 30.5852L18.82 35.3317C18.8868 35.4852 19.0928 35.5125 19.1971 35.3815L21.9453 31.9368L24.6946 35.3826C24.7989 35.5131 25.0043 35.4863 25.0712 35.3334L27.2492 30.3771V30.3766Z" fill="#B99FE2"/>
</g>
<g style="mix-blend-mode:screen">
<path d="M28.0786 25.0352C31.7805 21.2589 28.982 12.6837 28.982 12.6837C29.4661 12.7634 29.8886 13.1009 30.0641 13.5876C30.2155 14.0086 30.3347 14.4424 30.4251 14.8789C30.4915 15.1987 30.5573 15.5608 30.6161 15.9518C31.0788 19.0135 31.1424 23.889 28.0786 25.0352Z" fill="#F9BEA5"/>
</g>
<g style="mix-blend-mode:screen">
<path d="M29.193 9.65731C27.4626 9.82954 25.8874 8.73891 24.2121 8.27142C22.9461 7.91839 21.5992 7.92375 20.3032 8.14305C20.1288 8.17247 19.9047 8.28052 19.9518 8.45061C19.9753 8.53405 20.0588 8.58326 20.1358 8.62391C20.5231 8.82931 20.9761 9.16522 20.8729 9.59098C20.8263 9.78247 20.6728 9.92742 20.5193 10.0515C19.1211 11.1823 16.8976 11.5 15.1421 11.4144C14.6805 11.3919 14.1713 11.193 13.9761 10.7907C14.6896 10.0932 15.73 9.66105 16.8484 9.39574C16.8484 9.39574 16.8366 9.24331 16.858 8.99833C16.858 8.99779 16.8586 8.99672 16.8586 8.99619C16.9302 8.67526 16.9575 8.36235 17.065 8.04891C17.0677 8.04035 17.0709 8.03126 17.0741 8.02217C17.0784 8.00986 17.0827 7.9981 17.0875 7.9858C17.0896 7.97991 17.0923 7.97349 17.0944 7.96761C17.1062 7.93765 17.118 7.9077 17.1308 7.87775C17.1415 7.85208 17.1522 7.8264 17.164 7.80073C17.5421 6.95508 18.238 6.32659 19.0874 5.96393C19.15 5.93772 19.2137 5.91206 19.2778 5.88852C22.9776 4.51922 25.1493 7.14443 25.1493 7.14443C25.1562 7.14389 25.1632 7.14282 25.1707 7.14228C25.1755 7.14175 25.1797 7.14121 25.1846 7.14068H25.1867C25.966 7.14068 26.7106 7.10859 27.4824 7.27547C27.8654 7.35838 28.2564 7.47338 28.5939 7.67824C28.8822 7.85315 29.3502 8.07619 29.3829 8.44847C29.093 8.32651 28.764 8.37947 28.4495 8.38321C28.1275 8.38696 27.8044 8.33614 27.499 8.23344C27.2562 8.1516 27.023 8.03768 26.7716 7.98847C26.5533 7.94622 25.9072 7.83977 26.1249 8.17781C26.2821 8.42172 26.862 8.63782 27.116 8.77475C27.4568 8.95822 27.806 9.12563 28.1623 9.27647C28.4153 9.38291 28.9191 9.68459 29.193 9.65731Z" fill="#700517"/>
</g>
<g style="mix-blend-mode:multiply" opacity="0.7">
<path d="M31.9677 14.114C31.5184 14.5954 30.9209 15.303 30.616 15.9519C30.5572 15.5609 30.4914 15.1987 30.4251 14.8789C30.3347 14.4424 30.2154 14.0086 30.064 13.5877C30.0453 13.5353 30.0234 13.4844 29.9988 13.4358C30.1855 13.4534 30.3497 13.6577 30.5342 13.761C30.838 13.9305 31.5066 14.1766 31.9677 14.114Z" fill="#700517"/>
</g>
<g style="mix-blend-mode:screen">
<path d="M31.2418 9.80227L31.0134 9.752C31.0172 9.74986 31.0215 9.74825 31.0252 9.74664C31.0947 9.76215 31.1669 9.78088 31.2418 9.80227Z" fill="#700517"/>
</g>
<g style="mix-blend-mode:screen">
<path d="M32.9727 12.2023C32.9193 12.5858 32.793 12.9528 32.6069 13.2876C32.6042 13.2833 32.6015 13.279 32.5994 13.2742C32.5882 13.2496 32.5844 13.2218 32.5812 13.1951C32.5496 12.9399 32.5176 12.6843 32.486 12.4291C32.4443 12.0937 32.402 11.7541 32.2758 11.4406C32.0677 10.9218 31.6489 10.5169 31.2066 10.1746C31.1135 10.1029 31.0102 9.974 31.0878 9.8852C31.1589 9.80283 31.2916 9.86862 31.4002 9.85204C32.2164 10.1254 33.1739 10.7555 32.9727 12.2023Z" fill="#700517"/>
</g>
<g style="mix-blend-mode:screen">
<path d="M22.3769 14.9024C20.2646 15.3303 19.696 17.9453 19.6318 18.2759C19.5853 18.0914 19.5821 17.887 19.5997 17.6982C19.6885 16.7477 20.1373 15.8357 20.8364 15.1864C21.0482 14.9896 21.3477 14.7745 21.4242 14.4787C21.5499 13.9904 21.4285 13.4026 21.3798 12.9073C21.3761 12.8693 21.3734 12.8276 21.3964 12.7971C21.4462 12.7313 21.551 12.781 21.6114 12.8372C21.6227 12.8479 21.6339 12.8586 21.6446 12.8693L22.3769 14.9024Z" fill="#700517"/>
</g>
<g style="mix-blend-mode:screen">
<path d="M18.7221 16.7772C18.6547 16.9002 18.5483 16.9911 18.4178 17.0553C18.2263 17.1494 18.0129 17.188 17.7946 17.2142C17.4967 17.25 17.1897 17.2628 16.9137 17.3602C16.7463 17.419 16.5794 17.4843 16.4323 17.5827C16.2702 17.6907 16.136 17.8362 15.9808 17.9539C15.9455 17.9806 15.9086 18.0063 15.8701 18.0293C16.1071 17.1115 16.8907 16.437 17.8214 16.437H17.8315C18.1642 16.4391 18.4777 16.5648 18.7221 16.7772Z" fill="#F9BEA5"/>
</g>
<path d="M21.9763 31.2859L22.0058 31.3078L21.9763 31.3394L23.7933 33.2853L24.8471 34.4139L27.0363 30.3461V30.3456L26.4041 28.0338V28.0333L21.9763 31.2859Z" fill="#735FFF"/>
<path d="M20.218 33.2222L21.9761 31.3394L22.0055 31.3078L21.9761 31.2859L17.5847 28.06H17.5842L16.915 30.3397L19.1054 34.4139L20.218 33.2222Z" fill="#735FFF"/>
<g style="mix-blend-mode:screen">
<path d="M26.4041 28.0338L21.9763 31.2859L23.2066 32.7274L26.5036 28.4296L26.4041 28.0338Z" fill="#735FFF"/>
</g>
<g style="mix-blend-mode:screen">
<path d="M17.5847 28.06L21.9761 31.2859L20.5715 32.8237L17.4504 28.3419L17.5847 28.06Z" fill="#735FFF"/>
</g>
<g style="mix-blend-mode:screen">
<path d="M42.9955 37.8901L42.9885 37.896L39.2433 34.209C38.4618 33.4399 37.4503 32.9472 36.3634 32.8055L32.2941 32.3332L32.4764 32.0599L27.3025 31.4822L27.249 30.3766L30.7151 30.8703L37.0797 31.7775C38.0735 31.9347 38.9662 32.4749 39.5669 33.2821L42.9955 37.8901Z" fill="#2A6FF1"/>
</g>
<g style="mix-blend-mode:multiply">
<path d="M27.2482 32.2214C27.2091 33.5474 27.0888 34.8172 26.9101 36.0239C25.7398 43.8947 22.0582 49.0344 22.0582 49.0344C22.0582 49.0344 21.8325 48.6798 21.4741 48.0358C21.5212 47.9775 21.5704 47.9202 21.6223 47.863C24.4128 44.7842 27.2048 32.4145 27.2482 32.2214Z" fill="#B99FE2"/>
</g>
<g style="mix-blend-mode:screen">
<path d="M22.0559 49.0114C18.0373 46.0091 14.9906 41.9948 13.0132 38.8828C12.0504 37.3675 11.3663 35.6912 10.9972 33.9341C10.9833 33.8678 10.9763 33.8325 10.9763 33.8325L11.8407 34.2026C13.6561 35.0274 12.6858 33.7522 12.6858 33.7522L9.93384 32.8922C9.93384 32.8922 10.772 37.2322 13.8722 41.7445C13.8037 41.6289 13.7374 41.5118 13.6716 41.3936C15.5154 44.1402 18.2053 46.9981 22.057 49.0162H22.0596L22.0634 49.0173C22.0607 49.0152 22.0586 49.013 22.0559 49.0109V49.0114Z" fill="#2A6FF1"/>
</g>
<g style="mix-blend-mode:screen">
<path d="M32.6487 37.2381C32.0572 38.5988 31.2474 40.1612 30.1594 41.745C29.8909 42.1365 29.6052 42.5286 29.302 42.9196C27.9696 44.635 26.2922 46.3231 24.1912 47.7544C24.2725 47.6651 29.6197 42.1863 32.6487 37.2381Z" fill="#2A6FF1"/>
</g>
<g style="mix-blend-mode:screen">
<path d="M17.6277 38.2902C17.6277 38.2902 18.6638 40.1767 21.1013 40.955C21.1013 40.955 17.8583 38.4704 17.1843 36.1854L17.6277 38.2902Z" fill="#CA6754"/>
</g>
<g style="mix-blend-mode:screen">
<path d="M24.6475 39.5354L24.5063 39.6526C24.1447 36.4962 22.3239 34.2791 22.2036 34.1112C22.1993 34.1053 22.3379 34.1069 22.3379 34.1069L22.0635 34.116C22.7487 34.0015 23.3092 33.71 23.3434 33.6918L22.8974 34.0817C23.1509 34.4128 24.6721 36.5256 24.6475 39.5354Z" fill="#CA6754"/>
</g>
<g style="mix-blend-mode:screen">
<path d="M12.6886 30.9414C12.4923 31.0928 12.2746 31.2233 12.0045 31.3356C11.7643 31.4351 11.5236 31.5314 11.2808 31.6234C10.6705 31.8566 10.0521 32.0663 9.42366 32.2481C7.82756 32.7092 6.18281 33.0066 4.52734 33.1483C5.12374 32.4086 5.97581 31.9128 6.92202 31.763L10.9871 31.1837L12.6886 30.9414Z" fill="#2A6FF1"/>
</g>
<g style="mix-blend-mode:multiply">
<path d="M28.0392 12.826C27.9724 13.0121 27.7627 13.0982 27.5744 13.1598C26.211 13.6037 24.8909 13.777 23.5162 13.6979C23.1392 13.6759 22.7583 13.6353 22.3716 13.5759C22.3363 13.57 22.2983 13.5652 22.2673 13.5828C22.2352 13.6005 22.2197 13.6369 22.2069 13.6711C22.1534 13.8161 22.1159 13.9658 22.0945 14.1188L21.5923 12.7238C21.6238 12.7463 22.8193 13.5893 25.5905 13.2983L27.9462 12.8436L28.0392 12.826Z" fill="#DBAB9A"/>
</g>
<g style="mix-blend-mode:multiply">
<path d="M28.5145 12.7458L28.0935 12.8784C28.2192 12.7832 28.3519 12.7062 28.5145 12.7458Z" fill="#F9BEA5"/>
</g>
<path d="M17.8212 20.8669C17.3644 20.8669 16.9295 20.7129 16.5636 20.4208C16.5289 20.393 16.5235 20.3427 16.5508 20.308C16.5786 20.2732 16.6289 20.2678 16.6637 20.2951C17.0006 20.5642 17.4007 20.7065 17.8206 20.7065C18.1062 20.7065 18.3812 20.6412 18.6379 20.5128C18.6775 20.493 18.7256 20.5091 18.7454 20.5487C18.7652 20.5882 18.7492 20.6364 18.7096 20.6562C18.4304 20.7958 18.1309 20.8664 17.8201 20.8664L17.8212 20.8669Z" fill="#231F20"/>
<path d="M16.614 20.4379C16.5964 20.4379 16.5787 20.4321 16.5638 20.4203C16.1802 20.1138 15.9032 19.6731 15.7834 19.1799C15.7727 19.1366 15.7994 19.0932 15.8422 19.0831C15.8861 19.0724 15.9288 19.0991 15.939 19.1419C16.0503 19.6008 16.3075 20.0106 16.6638 20.2951C16.6985 20.3229 16.7039 20.3732 16.6766 20.408C16.6606 20.4278 16.6376 20.4379 16.614 20.4379Z" fill="#231F20"/>
<path d="M17.9739 19.1344C17.9642 19.1344 17.9546 19.1328 17.945 19.129C17.9038 19.113 17.8829 19.067 17.899 19.0253C17.9524 18.8851 17.937 18.7664 17.8503 18.6626C17.708 18.492 17.509 18.5877 17.2544 18.7851C17.2416 18.7953 17.225 18.8086 17.2052 18.8247C17.0111 18.9841 16.8099 19.1338 16.6703 19.0627C16.596 19.0247 16.5628 18.9376 16.5714 18.8038C16.589 18.5278 16.6751 18.2572 16.8196 18.0218C16.9421 17.8228 17.0892 17.6784 17.2571 17.5934C17.6101 17.4142 18.0391 17.4923 18.4119 17.5928C18.4547 17.6041 18.4799 17.6485 18.4686 17.6913C18.4574 17.7341 18.4135 17.7597 18.3702 17.748C18.0268 17.6554 17.6342 17.5822 17.3293 17.7367C17.1881 17.8084 17.0624 17.9325 16.956 18.1063C16.8249 18.3198 16.7468 18.5647 16.7308 18.8145C16.7254 18.9017 16.7431 18.921 16.7436 18.921C16.7661 18.9306 16.8431 18.9151 17.1025 18.7017C17.1234 18.6845 17.1416 18.6696 17.1555 18.6589C17.3191 18.5326 17.7027 18.2363 17.9728 18.561C18.0963 18.7092 18.122 18.8899 18.0482 19.0836C18.0359 19.1157 18.0054 19.1349 17.9733 19.1349L17.9739 19.1344Z" fill="#231F20"/>
<path d="M27.4509 18.9632C27.2198 18.9632 26.9743 18.8172 26.7571 18.6755C26.7202 18.6514 26.7095 18.6017 26.7336 18.5642C26.7582 18.5273 26.8074 18.5166 26.8448 18.5407C27.008 18.6471 27.3113 18.8456 27.529 18.7937C27.6129 18.7739 27.6809 18.7177 27.7354 18.623C27.9141 18.3144 27.8964 17.8052 27.6835 17.1505C27.5011 16.5889 27.2032 16.0791 26.9647 15.6978C26.9411 15.6603 26.9523 15.6106 26.9898 15.587C27.0272 15.5635 27.077 15.5747 27.1005 15.6122C27.3444 16.001 27.6482 16.522 27.836 17.1002C28.0665 17.8095 28.0794 18.3486 27.874 18.7027C27.7969 18.8359 27.6932 18.9188 27.5659 18.9488C27.5279 18.9579 27.4894 18.9622 27.4509 18.9622V18.9632Z" fill="#231F20"/>
<path d="M26.1585 25.3888C23.9537 25.3888 22.4106 24.5421 21.4933 23.8168C20.462 23.0011 19.9908 22.1811 19.971 22.1469C19.9491 22.1083 19.9624 22.0597 20.0009 22.0377C20.0395 22.0158 20.0887 22.0292 20.1101 22.0677C20.1149 22.0757 20.5888 22.8989 21.5976 23.6953C22.5272 24.4292 24.1158 25.2898 26.4008 25.2251C26.4436 25.223 26.4821 25.2588 26.4832 25.3032C26.4843 25.3476 26.4495 25.3845 26.4051 25.3856C26.3217 25.3877 26.2393 25.3893 26.1575 25.3893L26.1585 25.3888Z" fill="#231F20"/>
<path d="M26.404 25.3851C26.3607 25.3851 26.3248 25.3508 26.3238 25.307C26.3227 25.2626 26.3575 25.2257 26.4018 25.2246C26.6372 25.2182 26.8763 25.2021 27.1116 25.177C28.1231 25.07 28.9383 24.6239 29.5346 23.851C31.1912 21.7061 30.7874 17.6207 30.537 15.9636C30.5306 15.9197 30.5606 15.8791 30.6044 15.8721C30.6483 15.8652 30.6889 15.8957 30.6959 15.9395C30.9494 17.6169 31.3565 21.7559 29.6619 23.9494C29.0372 24.7582 28.1851 25.2251 27.1287 25.3369C26.8891 25.362 26.6463 25.3786 26.4067 25.3856C26.4061 25.3856 26.405 25.3856 26.4045 25.3856L26.404 25.3851Z" fill="#231F20"/>
<path d="M17.7553 23.4889C17.7553 23.4889 17.7532 23.4889 17.7521 23.4889C17.7077 23.4873 17.6735 23.4498 17.6751 23.406L17.7714 20.784C17.773 20.7396 17.812 20.7048 17.8543 20.7069C17.8987 20.7085 17.9329 20.746 17.9313 20.7899L17.835 23.4119C17.8334 23.4552 17.7976 23.4894 17.7548 23.4894L17.7553 23.4889Z" fill="#231F20"/>
<path d="M17.5847 28.1403C17.5847 28.1403 17.5825 28.1403 17.5815 28.1403C17.5371 28.1387 17.5028 28.1012 17.5044 28.0574L17.6751 23.406C17.6767 23.3616 17.7146 23.3268 17.758 23.329C17.8024 23.3306 17.8366 23.368 17.835 23.4119L17.6644 28.0632C17.6628 28.1066 17.6269 28.1408 17.5841 28.1408L17.5847 28.1403Z" fill="#231F20"/>
<path d="M30.715 30.9505C30.7113 30.9505 30.7075 30.9505 30.7038 30.95L27.2377 30.4563C27.1939 30.4499 27.1634 30.4092 27.1698 30.3654C27.1762 30.3215 27.2163 30.291 27.2607 30.2974L30.7268 30.7911C30.7706 30.7975 30.8011 30.8382 30.7947 30.8821C30.7888 30.9222 30.7546 30.951 30.7155 30.951L30.715 30.9505Z" fill="#231F20"/>
<path d="M27.2497 30.4568C27.246 30.4568 27.2423 30.4568 27.2385 30.4563L27.0251 30.4258C26.9812 30.4194 26.9507 30.3787 26.9572 30.3349C26.9636 30.291 27.0032 30.2611 27.0481 30.2669L27.2615 30.2974C27.3054 30.3038 27.3358 30.3445 27.3294 30.3883C27.3235 30.4285 27.2893 30.4574 27.2503 30.4574L27.2497 30.4568Z" fill="#231F20"/>
<path d="M49.526 52.8995H-2.73373C-2.75513 52.8995 -2.77546 52.8909 -2.79043 52.876C-2.80541 52.861 -2.81396 52.8407 -2.81396 52.8193L-2.80862 43.7765C-2.80862 43.7605 -2.80381 43.745 -2.79472 43.7316L4.27537 33.3532C4.883 32.4611 5.84312 31.8524 6.90968 31.6839L10.9764 31.1051C11.0208 31.0987 11.0609 31.1292 11.0673 31.1731C11.0738 31.2169 11.0433 31.2576 10.9994 31.264L6.93429 31.8427C5.91266 32.0048 4.99212 32.5884 4.40909 33.4442L-2.64709 43.8022L-2.65191 52.7396H49.4468V46.6938L39.5039 33.3308C38.9123 32.5354 38.0474 32.0123 37.0686 31.8572L30.7056 30.95C30.6617 30.9436 30.6312 30.9029 30.6377 30.8591C30.6441 30.8152 30.6842 30.7853 30.7286 30.7911L37.0932 31.6983C38.1148 31.8604 39.0166 32.4054 39.6333 33.2345L49.5923 46.6189C49.6025 46.6328 49.6084 46.6494 49.6084 46.667V52.8198C49.6084 52.8642 49.5725 52.9 49.5281 52.9L49.526 52.8995Z" fill="#231F20"/>
<path d="M10.987 31.264C10.948 31.264 10.9132 31.2351 10.9078 31.1949C10.9014 31.1511 10.9319 31.1104 10.9758 31.104L16.7702 30.2792C16.8146 30.2728 16.8547 30.3033 16.8611 30.3472C16.8675 30.391 16.837 30.4317 16.7932 30.4381L10.9988 31.2629C10.995 31.2629 10.9913 31.2634 10.9875 31.2634L10.987 31.264Z" fill="#231F20"/>
<path d="M16.7814 30.4392C16.7424 30.4392 16.7076 30.4103 16.7023 30.3702C16.6959 30.3263 16.7263 30.2856 16.7702 30.2792L16.9034 30.2605C16.9467 30.2541 16.9879 30.2846 16.9943 30.3284C17.0007 30.3723 16.9702 30.4129 16.9264 30.4194L16.7932 30.4381C16.7895 30.4381 16.7857 30.4386 16.782 30.4386L16.7814 30.4392Z" fill="#231F20"/>
<path d="M26.404 25.3845C26.3596 25.3845 26.3237 25.3492 26.3237 25.3048V25.3032C26.3237 25.2588 26.3596 25.223 26.404 25.223C26.4484 25.223 26.4842 25.2588 26.4842 25.3032C26.4842 25.3476 26.4484 25.384 26.404 25.384V25.3845Z" fill="#231F20"/>
<path d="M26.404 28.114C26.3596 28.114 26.3237 28.0782 26.3237 28.0338V25.3048C26.3237 25.2604 26.3596 25.2246 26.404 25.2246C26.4484 25.2246 26.4842 25.2604 26.4842 25.3048V28.0338C26.4842 28.0782 26.4484 28.114 26.404 28.114Z" fill="#231F20"/>
<path d="M16.9152 30.4199C16.9077 30.4199 16.9002 30.4188 16.8927 30.4167C16.8504 30.4044 16.8258 30.3595 16.8381 30.3172L17.5073 28.0375C17.5142 28.0129 17.533 27.9937 17.557 27.9846C17.5811 27.976 17.6078 27.9792 17.6287 27.9931C17.6603 28.014 17.672 28.0536 17.6597 28.0878L16.9922 30.3621C16.982 30.3969 16.9499 30.4199 16.9152 30.4199Z" fill="#231F20"/>
<path d="M19.1055 34.4941C19.1022 34.4941 19.0985 34.4941 19.0953 34.4936C19.0696 34.4904 19.0472 34.4749 19.0349 34.4519L16.8445 30.3776C16.8236 30.3386 16.8381 30.2899 16.8771 30.2691C16.9162 30.2482 16.9649 30.2626 16.9857 30.3017L19.1231 34.2775L20.1597 33.1676C20.1902 33.135 20.241 33.1334 20.2731 33.1639C20.3057 33.1943 20.3073 33.2446 20.2768 33.2772L19.1643 34.469C19.1488 34.4856 19.1279 34.4946 19.1055 34.4946V34.4941Z" fill="#231F20"/>
<path d="M20.2181 33.3024C20.1983 33.3024 20.179 33.2955 20.1635 33.281C20.1309 33.2505 20.1293 33.2003 20.1598 33.1676L21.9179 31.2848C21.9484 31.2522 21.9992 31.2506 22.0313 31.2811C22.064 31.3116 22.0656 31.3619 22.0351 31.3945L20.2769 33.2773C20.2609 33.2944 20.2395 33.303 20.2181 33.303V33.3024Z" fill="#231F20"/>
<path d="M21.976 31.4196C21.9562 31.4196 21.9369 31.4126 21.9214 31.3982C21.8974 31.3757 21.8904 31.342 21.9006 31.3126C21.892 31.2885 21.8952 31.2607 21.9118 31.2383C21.938 31.2024 21.9883 31.1949 22.0242 31.2212L22.0536 31.2431C22.0717 31.2565 22.0835 31.2773 22.0857 31.3003C22.0878 31.3233 22.0803 31.3458 22.0643 31.3624L22.0348 31.3939C22.0188 31.411 21.9974 31.4196 21.976 31.4196Z" fill="#231F20"/>
<path d="M21.9761 31.3661C21.9595 31.3661 21.943 31.3613 21.9285 31.3506L17.5371 28.1247C17.5013 28.0985 17.4938 28.0483 17.52 28.0124C17.5462 27.9766 17.5965 27.9691 17.6323 27.9953L22.0237 31.2212C22.0596 31.2474 22.0671 31.2977 22.0408 31.3335C22.0253 31.3549 22.0007 31.3661 21.9761 31.3661Z" fill="#231F20"/>
<path d="M21.9761 31.3661C21.9515 31.3661 21.9269 31.3549 21.9114 31.3335C21.8852 31.2977 21.8927 31.2474 21.9285 31.2212L26.3563 27.9685L26.4515 28.098L22.0237 31.3506C22.0093 31.3613 21.9927 31.3661 21.9761 31.3661Z" fill="#231F20"/>
<path d="M24.8469 34.4941C24.8249 34.4941 24.8035 34.485 24.788 34.4684L23.7343 33.3398C23.7038 33.3072 23.7059 33.2569 23.738 33.2264C23.7701 33.1965 23.8209 33.1981 23.8514 33.2302L24.8287 34.277L26.965 30.3076C26.9859 30.2685 27.0345 30.2541 27.0736 30.275C27.1126 30.2958 27.1271 30.3445 27.1062 30.3835L24.9169 34.4513C24.9046 34.4743 24.8822 34.4893 24.8565 34.4931C24.8533 34.4931 24.8495 34.4936 24.8463 34.4936L24.8469 34.4941Z" fill="#231F20"/>
<path d="M27.0361 30.4258C27.0206 30.4258 27.0056 30.4215 26.9917 30.4124C26.973 30.4001 26.9612 30.3814 26.9575 30.3611L26.3269 28.0547C26.3151 28.0119 26.3402 27.968 26.383 27.9562C26.4253 27.9445 26.4697 27.9696 26.4814 28.0124L27.1137 30.3242C27.1196 30.3466 27.1158 30.3707 27.103 30.39C27.0875 30.413 27.0618 30.4258 27.0361 30.4258Z" fill="#231F20"/>
<path d="M23.7932 33.3655C23.7718 33.3655 23.7504 33.357 23.7344 33.3398L21.9174 31.3939C21.8869 31.3613 21.889 31.311 21.9211 31.2805C21.9532 31.2506 22.0041 31.2522 22.0345 31.2843L23.8515 33.2302C23.882 33.2628 23.8799 33.3131 23.8478 33.3436C23.8323 33.358 23.8125 33.365 23.7932 33.365V33.3655Z" fill="#231F20"/>
<path d="M22.0581 49.1146C22.0314 49.1146 22.0057 49.1013 21.9902 49.0777C21.9736 49.0515 20.3091 46.4188 18.8606 42.5414C18.8451 42.4997 18.866 42.4537 18.9077 42.4382C18.9494 42.4227 18.9954 42.4436 19.0109 42.4853C20.4529 46.3461 22.1089 48.9654 22.1255 48.9916C22.1491 49.0291 22.1384 49.0788 22.1009 49.1023C22.0875 49.1109 22.0726 49.1146 22.0581 49.1146Z" fill="#231F20"/>
<path d="M22.0579 49.1146C22.0456 49.1146 22.0327 49.112 22.0204 49.1056C19.7477 47.9154 17.6937 46.3215 15.9158 44.3691C14.4941 42.8073 13.2446 41.0144 12.2021 39.0385C11.2746 37.2814 10.6862 35.7019 10.3557 34.6867C9.9973 33.5854 9.85609 32.8895 9.85502 32.8825C9.84967 32.8547 9.85876 32.8258 9.88015 32.8071C9.90155 32.7884 9.93096 32.782 9.95771 32.79L12.4925 33.5822L10.92 31.2281C10.8954 31.1912 10.905 31.1415 10.9419 31.1169C10.9788 31.0923 11.0286 31.1019 11.0532 31.1388L12.7514 33.6816C12.7701 33.71 12.7691 33.7469 12.7487 33.7742C12.7284 33.8015 12.6931 33.8127 12.6605 33.8025L10.0406 32.9842C10.1765 33.5736 10.8007 36.0421 12.3449 38.9679C13.381 40.9304 14.623 42.7121 16.0356 44.2627C17.8002 46.2006 19.8386 47.7817 22.0937 48.9627C22.1327 48.9831 22.1482 49.0317 22.1274 49.0713C22.1129 49.0986 22.0851 49.1141 22.0562 49.1141L22.0579 49.1146Z" fill="#231F20"/>
<path d="M17.1841 36.2662C17.1462 36.2662 17.1119 36.2389 17.105 36.1998C16.7493 34.1764 16.6134 32.2102 16.7011 30.3552C16.7033 30.3108 16.7396 30.2766 16.7851 30.2787C16.8295 30.2808 16.8637 30.3183 16.8616 30.3627C16.7744 32.2059 16.9092 34.1603 17.2633 36.172C17.2708 36.2159 17.2419 36.2571 17.198 36.2651C17.1932 36.2662 17.1889 36.2662 17.1841 36.2662Z" fill="#231F20"/>
<path d="M18.9358 42.5933C18.9032 42.5933 18.8727 42.5735 18.8604 42.5414C18.0576 40.3923 17.4671 38.2586 17.1049 36.1998C17.0975 36.156 17.1263 36.1148 17.1702 36.1068C17.2146 36.0988 17.2552 36.1282 17.2633 36.172C17.6238 38.2212 18.2116 40.3452 19.0107 42.4853C19.0262 42.527 19.0054 42.573 18.9637 42.5885C18.9546 42.5917 18.945 42.5933 18.9353 42.5933H18.9358Z" fill="#231F20"/>
<path d="M22.058 49.1146C22.0291 49.1146 22.0013 49.0991 21.9868 49.0718C21.9665 49.0328 21.9815 48.9841 22.0205 48.9632C24.2756 47.7822 26.3093 46.2022 28.0653 44.2675C29.4709 42.7185 30.7028 40.94 31.7265 38.9812C32.638 37.2375 33.2124 35.6709 33.5339 34.6637C33.7939 33.8496 33.9346 33.2596 33.9902 33.0098L31.3693 33.8287C31.3372 33.8389 31.3013 33.8276 31.281 33.8004C31.2606 33.7731 31.2596 33.7362 31.2783 33.7078L32.9081 31.2677L30.7028 30.95C30.6589 30.9435 30.6284 30.9029 30.6349 30.859C30.6413 30.8152 30.6819 30.7847 30.7258 30.7911L33.0568 31.127C33.0841 31.1308 33.1076 31.1484 33.1189 31.1736C33.1301 31.1987 33.1274 31.2281 33.1124 31.2506L31.5383 33.6078L34.0731 32.8156C34.0998 32.8071 34.1293 32.8135 34.1506 32.8322C34.1715 32.851 34.1811 32.8793 34.1758 32.9071C34.1704 32.9344 33.6254 35.6933 31.871 39.0502C30.8408 41.0218 29.6009 42.8126 28.1861 44.3723C26.4168 46.3225 24.3671 47.9149 22.0943 49.105C22.0826 49.1114 22.0698 49.1141 22.0569 49.1141L22.058 49.1146Z" fill="#231F20"/>
<path d="M22.0581 49.1146C22.0421 49.1146 22.0255 49.1098 22.0116 49.0997C21.9757 49.074 21.9672 49.0237 21.9929 48.9879C22.0019 48.975 22.923 47.6801 23.9746 45.4427C24.9449 43.378 26.2281 40.0665 26.8303 36.0121C26.8368 35.9683 26.878 35.9378 26.9213 35.9447C26.9651 35.9511 26.9951 35.9918 26.9887 36.0357C26.3832 40.1115 25.0931 43.4401 24.1174 45.5154C23.06 47.7651 22.1319 49.0686 22.1228 49.082C22.1073 49.1039 22.0827 49.1157 22.0576 49.1157L22.0581 49.1146Z" fill="#231F20"/>
<path d="M26.9099 36.1036C26.9061 36.1036 26.9018 36.1036 26.8981 36.1025C26.8542 36.0961 26.8243 36.0554 26.8307 36.0116C27.1094 34.1373 27.2233 32.2423 27.1693 30.3787C27.1682 30.3343 27.203 30.2974 27.2474 30.2964C27.2479 30.2964 27.249 30.2964 27.2495 30.2964C27.2928 30.2964 27.3281 30.3306 27.3297 30.3745C27.3838 32.2471 27.2693 34.1518 26.9895 36.0357C26.9837 36.0752 26.9494 36.1041 26.9104 36.1041L26.9099 36.1036Z" fill="#231F20"/>
<path d="M21.1782 34.1619C21.1696 34.1619 21.161 34.1604 21.1525 34.1577C21.0477 34.1224 20.9519 34.063 20.8749 33.987L20.1614 33.2794C20.1298 33.2484 20.1298 33.1976 20.1614 33.166C20.1924 33.1344 20.2432 33.1344 20.2747 33.166L20.9883 33.8737C21.0477 33.933 21.1225 33.9785 21.2044 34.0063C21.2466 34.0207 21.2691 34.0662 21.2547 34.1079C21.2434 34.1416 21.2124 34.1625 21.1787 34.1625L21.1782 34.1619Z" fill="#231F20"/>
<path d="M22.8972 34.162C22.8635 34.162 22.8325 34.1411 22.8212 34.1074C22.8068 34.0657 22.8298 34.0197 22.8715 34.0058C22.9533 33.978 23.0277 33.9325 23.0876 33.8731L23.7369 33.2291C23.7685 33.1981 23.8193 33.1981 23.8503 33.2291C23.8813 33.2607 23.8813 33.3115 23.8503 33.3425L23.201 33.9865C23.124 34.063 23.0282 34.1219 22.9234 34.1572C22.9148 34.1598 22.9062 34.1614 22.8977 34.1614L22.8972 34.162Z" fill="#231F20"/>
<path d="M22.6919 34.1962H21.3836C21.306 34.1962 21.2285 34.1833 21.1525 34.1577C21.1108 34.1438 21.0878 34.0978 21.1022 34.056C21.1161 34.0143 21.1621 33.9913 21.2038 34.0058C21.2632 34.0255 21.3237 34.0357 21.3836 34.0357H22.6919C22.7518 34.0357 22.8123 34.0255 22.8716 34.0058C22.9139 33.9913 22.9593 34.0143 22.9732 34.056C22.9877 34.0978 22.9647 34.1438 22.923 34.1577C22.847 34.1833 22.7695 34.1962 22.6919 34.1962Z" fill="#231F20"/>
<path d="M24.6474 39.6156H24.6469C24.6025 39.6156 24.5672 39.5792 24.5672 39.5349C24.5918 36.5769 23.1273 34.5139 22.8336 34.1304C22.8069 34.0951 22.8133 34.0448 22.8486 34.0181C22.8839 33.9908 22.9342 33.9977 22.9609 34.033C23.2604 34.424 24.7528 36.5261 24.7276 39.5365C24.7276 39.5803 24.6912 39.6162 24.6474 39.6162V39.6156Z" fill="#231F20"/>
<path d="M24.6474 39.5461H24.5671V39.5343C24.5677 39.4905 24.6035 39.4552 24.6474 39.4552H24.6484C24.6928 39.4557 24.7281 39.4921 24.7276 39.5365V39.5418L24.6474 39.5456V39.5461Z" fill="#231F20"/>
<path d="M19.4286 39.6504C19.3847 39.6504 19.3489 39.6151 19.3483 39.5713C19.3114 36.5422 20.8134 34.4262 21.1151 34.0325C21.1418 33.9972 21.1921 33.9908 21.2274 34.0176C21.2627 34.0443 21.2691 34.0951 21.2424 34.1299C20.9466 34.5161 19.473 36.593 19.5088 39.5691C19.5088 39.6135 19.474 39.6499 19.4296 39.6504H19.4286Z" fill="#231F20"/>
<path d="M24.6473 39.6156C24.6264 39.6156 24.6056 39.6076 24.5901 39.5916C24.5591 39.56 24.5596 39.5092 24.5911 39.4782C26.1878 37.9115 26.7387 36.3058 26.8329 35.9998C26.8457 35.9576 26.8911 35.934 26.9334 35.9469C26.9757 35.9597 26.9997 36.0046 26.9864 36.0474C26.8901 36.3598 26.3279 37.9992 24.7035 39.5932C24.688 39.6087 24.6676 39.6162 24.6473 39.6162V39.6156Z" fill="#231F20"/>
<path d="M18.936 42.5933C18.8991 42.5933 18.8665 42.5682 18.8579 42.5308C18.8483 42.4874 18.875 42.4447 18.9184 42.435C20.0256 42.1836 21.0568 41.8162 21.9833 41.3422C22.0228 41.3219 22.071 41.3374 22.0913 41.377C22.1116 41.4166 22.0956 41.4647 22.0565 41.4851C21.1178 41.9648 20.0737 42.3377 18.9537 42.5917C18.9478 42.5933 18.9419 42.5939 18.936 42.5939V42.5933Z" fill="#231F20"/>
<path d="M22.0195 41.4936C21.9906 41.4936 21.9622 41.4776 21.9478 41.4498C21.9275 41.4102 21.9435 41.362 21.9826 41.3417C22.9646 40.8395 23.8418 40.2126 24.5907 39.4776C24.6222 39.4466 24.673 39.4472 24.704 39.4787C24.7351 39.5103 24.7345 39.5611 24.703 39.5921C23.9429 40.3383 23.0518 40.9748 22.0553 41.4845C22.0435 41.4904 22.0312 41.4931 22.0189 41.4931L22.0195 41.4936Z" fill="#231F20"/>
<path d="M22.0196 41.4936C22.0073 41.4936 21.995 41.4909 21.9832 41.485C21.0033 40.9839 20.125 40.3591 19.3724 39.6279C19.3409 39.5969 19.3398 39.5461 19.3708 39.5145C19.4018 39.483 19.4527 39.4819 19.4842 39.5129C20.2256 40.2329 21.091 40.8485 22.0559 41.3422C22.0955 41.3626 22.111 41.4107 22.0907 41.4503C22.0763 41.4781 22.0485 41.4941 22.019 41.4941L22.0196 41.4936Z" fill="#231F20"/>
<path d="M19.4285 39.6504C19.4081 39.6504 19.3884 39.6429 19.3728 39.628C17.9164 38.2127 17.3045 36.7679 17.1087 36.2127C17.0942 36.171 17.1162 36.125 17.1579 36.1106C17.1996 36.0961 17.2456 36.118 17.2601 36.1598C17.4515 36.7048 18.0522 38.1217 19.4841 39.5135C19.5157 39.5445 19.5167 39.5953 19.4857 39.6269C19.4702 39.6429 19.4488 39.6515 19.428 39.6515L19.4285 39.6504Z" fill="#231F20"/>
<path d="M21.1133 44.2445C20.7886 44.2445 20.5244 43.9803 20.5244 43.6556C20.5244 43.3309 20.7886 43.0667 21.1133 43.0667C21.438 43.0667 21.7022 43.3309 21.7022 43.6556C21.7022 43.9803 21.438 44.2445 21.1133 44.2445ZM21.1133 43.2272C20.8769 43.2272 20.6849 43.4192 20.6849 43.6556C20.6849 43.892 20.8769 44.0841 21.1133 44.0841C21.3497 44.0841 21.5418 43.892 21.5418 43.6556C21.5418 43.4192 21.3497 43.2272 21.1133 43.2272Z" fill="#231F20"/>
<path d="M15.8612 19.2414C15.8365 19.2414 15.8119 19.2301 15.7959 19.2082C15.652 19.0092 15.506 18.8113 15.36 18.614C14.1581 16.9852 12.915 15.3014 12.9348 13.0956C12.9514 11.2138 14.2399 9.9483 16.7646 9.33318C16.7603 9.14651 16.7715 8.60627 17.0042 7.97778C17.2652 7.27281 17.867 6.32446 19.2491 5.81311C21.1864 5.09637 22.7034 5.48148 23.6346 5.93078C24.5284 6.3619 25.0563 6.91925 25.1815 7.06046C25.3832 7.04228 26.2534 6.98345 27.2675 7.21398C28.7577 7.55256 29.8377 8.36612 30.394 9.56747C30.6657 9.58566 31.9414 9.71509 32.6367 10.5452C33.0052 10.9849 33.1449 11.546 33.0518 12.2141C32.9576 12.8902 32.6463 13.5202 32.1516 14.0364C31.6616 14.5472 31.0101 15.2998 30.6876 15.9866C30.6689 16.0267 30.6207 16.0438 30.5806 16.0251C30.5405 16.0064 30.5234 15.9583 30.5421 15.9181C30.8737 15.2121 31.537 14.4445 32.035 13.9252C32.5062 13.4336 32.8025 12.8345 32.8918 12.1921C32.978 11.5711 32.8507 11.0523 32.5131 10.649C31.7948 9.79105 30.3517 9.72633 30.3373 9.72526C30.3068 9.72419 30.2795 9.70546 30.2672 9.67818C29.7312 8.48486 28.7112 7.70875 27.2354 7.3723C26.1277 7.11984 25.1654 7.22414 25.1563 7.22521C25.1291 7.22842 25.1029 7.21772 25.0858 7.19686C25.0804 7.19044 24.538 6.54484 23.5581 6.07361C22.6563 5.63981 21.1859 5.2686 19.3042 5.96502C18.2425 6.35763 17.5198 7.05245 17.1561 8.02861C16.8838 8.75979 16.9261 9.38454 16.9266 9.39095C16.9293 9.43 16.9036 9.46583 16.8651 9.47492C14.379 10.0649 13.1102 11.2839 13.0942 13.0982C13.0749 15.2506 14.2474 16.8387 15.4883 18.5203C15.6344 18.7183 15.7804 18.9162 15.9248 19.1157C15.951 19.1515 15.943 19.2018 15.9072 19.2275C15.8927 19.2376 15.8767 19.243 15.8601 19.243L15.8612 19.2414Z" fill="#231F20"/>
<path d="M17.7548 23.4889C17.7184 23.4889 17.6858 23.4643 17.6767 23.4274C17.4103 22.3223 17.029 21.3023 16.5427 20.3957C16.5219 20.3566 16.5363 20.3079 16.5754 20.2871C16.6144 20.2662 16.6631 20.2806 16.6839 20.3197C17.1766 21.2381 17.5633 22.271 17.8324 23.3894C17.8425 23.4327 17.8163 23.476 17.773 23.4862C17.7666 23.4878 17.7601 23.4883 17.7543 23.4883L17.7548 23.4889Z" fill="#231F20"/>
<path d="M15.8613 19.2414C15.8249 19.2414 15.7923 19.2168 15.7832 19.1799C15.7383 18.9948 15.7158 18.8038 15.7158 18.6118C15.7158 17.3682 16.6604 16.3568 17.8211 16.3568H17.8329C18.3656 16.36 18.8577 16.6616 19.1161 17.1452C19.2921 17.4752 19.4531 17.7854 19.5964 18.07C19.7676 17.3725 20.4287 15.2784 22.2703 14.843L21.5161 12.7495C21.5043 12.7163 21.515 12.6794 21.5434 12.658C21.5717 12.6372 21.6102 12.6366 21.6391 12.658C21.6439 12.6612 22.135 13.0105 23.2015 13.1828C24.1878 13.3422 25.8818 13.378 28.3487 12.6457C28.3487 12.6457 28.3797 12.6356 28.4321 12.6233C29.1526 12.4542 29.887 12.857 30.14 13.5599C30.2871 13.969 30.4096 14.4071 30.5043 14.8618C30.5754 15.2036 30.6396 15.5662 30.6963 15.939C30.7027 15.9829 30.6728 16.0235 30.6289 16.0305C30.5845 16.0369 30.5444 16.0069 30.5374 15.9631C30.4818 15.5929 30.4176 15.2335 30.347 14.8944C30.2539 14.4467 30.1336 14.0161 29.9892 13.6139C29.7635 12.9875 29.1104 12.6286 28.4685 12.7789C28.4231 12.7896 28.3968 12.7982 28.3968 12.7982C27.0115 13.2095 24.9811 13.6363 23.1609 13.3384C22.4431 13.2207 21.982 13.0276 21.7429 12.9041L22.4527 14.8746C22.4607 14.8965 22.4586 14.9206 22.4473 14.9409C22.4361 14.9613 22.4163 14.9757 22.3933 14.98C20.219 15.4202 19.7109 18.2936 19.706 18.3225C19.7002 18.3567 19.6729 18.3834 19.6387 18.3888C19.6044 18.3936 19.5702 18.3759 19.5552 18.3449C19.3889 18.0079 19.1942 17.6292 18.9754 17.2201C18.7449 16.7884 18.3068 16.5188 17.8324 16.5162H17.8222C16.7498 16.5162 15.8774 17.4559 15.8774 18.6108C15.8774 18.7899 15.8987 18.9686 15.9405 19.1408C15.9512 19.1842 15.9244 19.2275 15.8816 19.2376C15.8752 19.2392 15.8688 19.2398 15.8629 19.2398L15.8613 19.2414Z" fill="#231F20"/>
<path d="M26.3187 20.8455C25.4372 20.8455 24.7269 20.1812 24.4669 19.9014C24.437 19.8688 24.4386 19.818 24.4712 19.788C24.5038 19.7581 24.5546 19.7597 24.5846 19.7923C25.9587 21.2729 27.113 20.5502 27.5457 20.171C27.5789 20.1416 27.6297 20.1453 27.6591 20.1785C27.6885 20.2116 27.6848 20.2625 27.6516 20.2919C27.189 20.6979 26.7348 20.8455 26.3187 20.8455Z" fill="#231F20"/>
<path d="M24.5259 19.9271C24.4954 19.9271 24.466 19.9094 24.4526 19.8795C24.4344 19.8388 24.4526 19.7918 24.4933 19.7736C24.6125 19.7206 24.7136 19.6409 24.7939 19.5366C24.8211 19.5013 24.8714 19.4949 24.9062 19.5222C24.9415 19.5489 24.9479 19.5997 24.9206 19.6345C24.8238 19.7602 24.7019 19.8559 24.5585 19.9201C24.5478 19.9249 24.5366 19.9271 24.5259 19.9271Z" fill="#231F20"/>
<path d="M24.1273 20.01C24.0684 20.01 24.0315 20.0052 24.0278 20.0047C23.9839 19.9982 23.9534 19.9576 23.9598 19.9137C23.9663 19.8699 24.0069 19.8394 24.0502 19.8458C24.0502 19.8458 24.2685 19.8741 24.4931 19.7741C24.5332 19.7559 24.5808 19.7741 24.599 19.8148C24.6172 19.8554 24.599 19.9025 24.5584 19.9207C24.3893 19.9961 24.2267 20.0105 24.1273 20.0105V20.01Z" fill="#231F20"/>
</g>
</g>
<defs>
<clipPath id="clip0_19422_22328">
<rect width="46" height="46" rx="23" fill="white"/>
</clipPath>
<clipPath id="clip1_19422_22328">
<rect width="46" height="46" fill="white"/>
</clipPath>
</defs>
</svg>
